<?xml version="1.0" standalone="no"?>
<!DOCTYPE svg PUBLIC "-//W3C//DTD SVG 20010904//EN"
 "http://www.w3.org/TR/2001/REC-SVG-20010904/DTD/svg10.dtd">
<svg version="1.0" xmlns="http://www.w3.org/2000/svg"
 width="300.000000pt" height="223.000000pt" viewBox="0 0 300.000000 223.000000"
 preserveAspectRatio="xMidYMid meet">
<metadata>
Created by potrace 1.10, written by Peter Selinger 2001-2011
</metadata>
<g transform="translate(0.000000,223.000000) scale(0.050000,-0.050000)"
fill="#000000" stroke="none">
<path d="M920 4441 c0 -11 14 -15 30 -8 18 6 30 0 30 -16 1 -19 5 -20 15 -4 8
12 33 27 55 32 22 6 2 11 -45 13 -47 1 -85 -7 -85 -17z"/>
<path d="M1133 4447 c-25 -25 -13 -87 17 -87 17 0 30 14 30 31 0 20 -9 26 -25
16 -17 -10 -16 -4 2 19 26 32 5 50 -24 21z"/>
<path d="M2610 4436 c-45 -25 -194 -119 -395 -249 l-135 -87 0 -125 c0 -69 -6
-240 -13 -380 l-13 -254 -182 4 c-134 3 -201 -4 -252 -28 -38 -18 -115 -53
-170 -77 -125 -55 -230 -153 -230 -214 0 -25 -8 -46 -18 -46 -86 0 -106 -603
-24 -718 21 -29 56 -106 78 -170 21 -64 45 -106 53 -94 43 70 81 -22 73 -177
-2 -59 11 -215 30 -345 42 -284 70 -255 -268 -275 -154 -9 -293 -24 -307 -33
-76 -46 -315 -259 -367 -327 -33 -43 -89 -94 -125 -114 -36 -20 -65 -48 -65
-62 0 -35 12 -32 82 20 86 63 475 68 565 7 45 -31 94 -39 245 -40 l188 -2 0
84 c0 72 37 146 73 146 67 0 114 -91 57 -113 -16 -6 -30 -36 -30 -66 l0 -54
555 -3 c305 -2 668 6 806 19 l252 23 2 172 c2 150 -3 178 -40 217 -38 41 -43
70 -45 290 -1 135 -10 261 -18 280 -21 45 32 48 68 5 14 -17 30 -27 35 -22 21
21 -70 92 -102 80 -71 -27 -196 177 -192 314 5 137 128 220 199 134 46 -54 53
-136 11 -136 -15 0 -42 -14 -60 -31 -34 -35 -42 -109 -11 -109 11 0 20 10 20
22 0 67 143 161 193 128 28 -18 53 -30 56 -27 25 30 51 103 51 144 0 27 10 53
23 57 29 10 44 136 16 136 -48 0 -10 128 41 140 44 10 45 14 13 26 -20 8 -46
9 -57 2 -11 -7 -17 3 -13 25 4 20 21 37 37 37 17 0 52 25 78 55 56 65 132 72
162 15 41 -76 230 -138 303 -98 29 15 48 14 69 -3 18 -16 64 -20 126 -13 80
10 104 5 132 -26 19 -21 53 -41 77 -44 29 -4 45 -22 49 -56 16 -149 13 -147
160 -132 74 8 172 13 219 12 51 -1 85 7 85 21 0 13 -28 20 -69 16 -38 -3 -74
-1 -80 5 -6 6 -56 2 -110 -9 -99 -21 -155 -6 -103 26 15 9 21 27 13 39 -7 12
-3 22 10 22 13 0 18 13 12 29 -6 17 7 42 30 59 28 19 39 43 32 69 -8 30 2 41
47 50 32 7 58 21 58 32 0 13 -17 13 -51 1 -68 -26 -69 -26 -69 19 0 21 -9 44
-19 50 -11 7 -14 25 -8 42 8 20 -2 29 -31 29 -57 0 -131 75 -105 106 11 13 20
33 21 44 0 11 51 26 113 33 102 11 171 42 147 66 -5 5 -49 -1 -99 -12 -126
-29 -299 -6 -334 44 -15 22 -39 38 -52 35 -12 -3 -45 10 -73 29 -41 27 -66 29
-137 13 -91 -20 -143 -1 -143 52 0 51 -142 48 -165 -4 -25 -53 -41 -57 -80
-18 -16 16 -46 27 -67 25 -31 -2 -39 12 -44 82 -5 67 0 85 25 85 28 0 29 5 4
45 -42 67 -17 327 30 319 19 -3 40 4 47 15 7 12 -9 21 -39 21 l-52 0 8 155 c5
85 11 164 13 175 11 49 -2 130 -21 130 -12 0 -16 -9 -9 -20 7 -11 1 -20 -14
-20 -20 0 -25 -41 -22 -169 2 -93 -4 -194 -12 -224 -8 -31 -5 -95 6 -144 16
-70 14 -92 -9 -110 -35 -28 -49 -93 -20 -93 12 0 21 -13 21 -30 0 -16 -10 -30
-22 -30 -16 0 -15 -9 2 -30 20 -24 20 -30 -3 -30 -19 -1 -20 -5 -4 -15 27 -17
5 -175 -29 -209 -55 -55 -64 46 -43 445 3 61 0 121 -8 134 -7 12 -3 47 9 78
35 87 42 212 13 202 -14 -4 -28 -50 -31 -102 -4 -65 -15 -93 -35 -93 -24 0
-25 -7 -4 -41 21 -33 20 -44 -5 -59 -20 -13 -22 -19 -5 -20 14 0 25 -18 25
-40 0 -22 -10 -40 -22 -40 -16 0 -16 -9 1 -29 31 -38 11 -71 -45 -72 -42 -1
-42 -2 5 -21 65 -26 65 -25 50 -86 -7 -29 -28 -53 -46 -53 -26 -2 -24 -6 7
-19 40 -17 40 -17 0 -20 -37 -2 -37 -4 5 -21 25 -10 45 -34 45 -53 -1 -122
-72 -173 -146 -105 -27 25 -32 39 -15 39 20 0 18 10 -8 38 -27 31 -32 60 -22
145 7 59 17 260 23 447 13 441 7 409 67 406 28 -2 61 -11 74 -20 14 -11 27 -5
34 14 8 21 -3 38 -32 49 -45 18 -45 18 -2 20 44 1 68 38 65 98 -1 20 -5 24
-11 8 -6 -14 -24 -25 -41 -25 -18 0 -26 -12 -20 -28 7 -17 -5 -32 -29 -39 -24
-6 -35 -20 -27 -33 9 -14 -5 -19 -42 -14 -42 5 -61 23 -79 76 -20 58 -31 67
-79 62 -46 -5 -53 -1 -40 30 44 107 44 106 -103 105 -75 0 -155 -10 -177 -23z
m149 -95 c12 -21 21 -53 21 -71 0 -18 14 -46 30 -63 21 -21 30 -22 30 -5 0 40
22 6 30 -45 4 -26 13 -65 20 -87 8 -26 -2 -56 -30 -85 -23 -25 -32 -45 -20
-45 12 0 17 -9 10 -20 -7 -11 2 -20 19 -20 17 0 31 -8 31 -18 0 -10 -19 -13
-42 -7 -37 9 -39 6 -20 -32 12 -24 30 -59 40 -79 12 -24 6 -60 -18 -108 -27
-55 -28 -70 -7 -62 16 6 27 -3 27 -23 0 -21 -9 -28 -25 -19 -20 11 -20 8 0
-13 19 -21 17 -34 -10 -66 -19 -22 -25 -34 -12 -27 32 19 54 -49 23 -69 -21
-14 -21 -20 2 -35 15 -10 21 -27 14 -38 -7 -11 -1 -26 13 -33 14 -6 5 -8 -20
-3 -29 5 -45 -2 -45 -20 0 -15 10 -28 22 -28 16 0 15 -9 -2 -30 -25 -30 -10
-40 53 -32 12 1 28 -12 35 -30 10 -26 18 -28 42 -8 21 17 30 18 30 2 0 -12
-10 -22 -22 -22 -13 0 -18 -18 -12 -41 9 -33 3 -38 -28 -28 -50 16 -49 -21 3
-57 33 -24 35 -31 11 -40 -16 -7 -33 -2 -37 11 -11 34 -75 1 -75 -40 0 -29 16
-36 82 -35 101 1 115 -19 57 -81 -58 -62 -119 -65 -119 -7 0 34 -9 40 -45 31
-25 -7 -61 -13 -81 -13 -25 0 -34 -12 -29 -35 4 -19 19 -32 34 -29 14 3 42 -9
61 -26 29 -26 38 -27 48 -6 7 14 8 3 2 -26 -15 -85 80 -73 136 17 28 44 129
31 145 -19 9 -26 5 -47 -7 -51 -12 -4 -17 -23 -11 -41 9 -31 8 -31 -16 -2 -36
43 -75 26 -65 -28 5 -24 3 -34 -3 -21 -23 47 -92 -1 -142 -98 -37 -74 -56 -94
-73 -77 -42 42 -69 22 -93 -73 -13 -52 -32 -111 -43 -130 -10 -19 -18 -53 -18
-75 0 -23 -13 -46 -30 -53 -56 -21 -30 -83 70 -167 104 -87 128 -132 60 -110
-47 15 10 -120 71 -171 58 -48 33 -79 -62 -79 -57 0 -87 -8 -79 -20 7 -12 20
-16 28 -11 8 5 16 -2 17 -15 9 -104 54 -291 69 -281 10 6 16 73 13 148 -10
240 28 177 48 -79 4 -60 -2 -70 -55 -88 -33 -11 -67 -32 -76 -47 -9 -15 -26
-22 -38 -14 -14 8 -16 4 -7 -11 10 -17 1 -20 -34 -12 -37 10 -52 2 -70 -38
-19 -42 -18 -48 6 -39 16 6 29 24 29 41 0 24 5 24 31 -3 38 -37 57 -41 36 -6
-12 20 -8 20 16 0 17 -13 37 -18 45 -11 7 8 38 17 67 21 30 4 48 1 40 -6 -7
-8 0 -33 16 -56 32 -46 40 -122 10 -104 -10 6 -24 3 -30 -8 -8 -13 -30 -13
-63 0 -33 12 -46 12 -38 -1 7 -11 3 -20 -9 -20 -11 0 -21 10 -21 22 0 17 -8
16 -28 -1 -20 -16 -33 -16 -41 -2 -21 33 -51 25 -53 -14 0 -19 -5 -26 -10 -15
-9 23 -228 25 -264 3 -13 -8 -41 -6 -62 6 -28 15 -42 14 -50 -4 -10 -20 -14
-20 -24 0 -13 30 -148 34 -148 5 0 -11 -13 -20 -29 -20 -23 0 -27 15 -18 60 7
34 4 60 -8 60 -11 0 -19 -19 -17 -43 1 -24 -9 -47 -23 -52 -14 -5 -25 8 -26
28 0 21 -13 54 -30 76 -25 34 -29 34 -29 5 0 -54 -55 -39 -77 21 -12 35 -20
42 -21 20 -2 -36 -42 -50 -42 -15 0 12 -23 30 -51 40 -27 11 -55 33 -62 50 -6
16 -24 30 -39 30 -32 0 -38 52 -8 70 11 7 16 35 11 62 -5 30 5 65 25 88 92
101 101 120 56 120 -34 0 -66 38 -75 90 -9 49 60 57 99 11 22 -26 23 -24 4 14
-15 32 -15 56 0 85 29 54 43 50 32 -9 -11 -62 38 -110 74 -71 19 21 17 23 -11
14 -23 -9 -35 -3 -35 17 0 16 15 29 34 29 26 0 29 5 10 24 -42 42 -27 53 91
66 63 7 142 21 175 31 179 52 287 37 230 -31 -13 -16 -18 -38 -11 -49 8 -12 1
-16 -16 -9 -43 16 -63 -31 -28 -66 27 -26 33 -23 58 33 20 48 37 60 67 53 39
-10 39 -10 1 19 -21 16 -28 29 -15 29 30 0 109 -43 129 -70 8 -12 15 -7 15 11
0 16 -18 46 -40 64 -50 43 -54 99 -7 81 26 -10 31 -5 21 21 -7 18 -4 33 7 33
27 0 24 -47 -6 -77 -19 -19 -13 -33 28 -69 34 -29 57 -72 64 -124 8 -55 6 -71
-7 -50 -11 17 -20 46 -20 66 0 34 -3 34 -31 5 -40 -39 -81 -40 -96 -1 -7 16
-21 30 -33 30 -15 0 -15 -12 -1 -39 12 -21 21 -57 21 -80 0 -22 10 -41 21 -41
12 0 15 10 8 21 -7 12 4 34 24 50 44 33 75 38 56 8 -16 -26 29 -83 53 -68 10
6 18 -9 18 -35 1 -33 5 -39 18 -19 14 22 20 22 33 1 9 -15 6 -29 -7 -33 -24
-8 -35 -105 -13 -105 25 0 68 58 52 68 -10 6 -11 48 -3 92 8 44 8 85 0 90 -66
41 -69 641 -3 711 53 57 50 152 -6 191 -39 27 -53 236 -20 290 6 10 -2 37 -18
60 -17 24 -26 54 -20 68 5 14 -5 30 -22 37 -37 14 -41 66 -6 80 14 6 10 11
-11 11 -24 1 -35 14 -30 36 6 31 -137 186 -157 171 -11 -8 -132 55 -171 89
-35 32 -34 36 46 125 32 35 41 187 14 232 -20 33 -5 176 20 184 13 5 24 16 24
26 0 10 -16 12 -35 5 -31 -11 -30 -7 5 34 22 26 29 40 15 32 -14 -8 -25 -5
-25 7 0 12 12 27 27 32 14 6 38 42 53 80 22 55 36 67 66 57 24 -7 34 -4 27 8
-7 11 2 26 21 33 18 7 40 1 49 -13 16 -25 21 -13 16 38 -1 8 17 21 40 29 22 9
41 30 41 48 0 17 9 26 20 19 11 -7 20 -1 20 14 1 19 4 20 16 2 10 -16 24 -4
41 35 31 69 53 74 82 20z m-649 -1092 c-38 -29 -38 -30 8 -25 57 7 76 -95 22
-124 -67 -36 -140 122 -75 163 48 31 88 18 45 -14z m-242 -100 c6 -18 3 -26
-8 -19 -11 7 -20 3 -20 -9 0 -35 -37 -24 -60 19 -19 35 -15 40 27 40 27 0 54
-14 61 -31z m-208 -81 c0 -17 9 -25 20 -18 11 7 20 -5 20 -27 0 -44 -37 -63
-122 -63 -32 0 -58 -7 -58 -16 0 -8 -29 -26 -65 -39 l-65 -24 64 58 c51 47 57
60 31 70 -25 10 -17 20 34 48 84 45 141 49 141 11z m1635 -127 c-11 -42 19
-62 78 -51 20 4 61 8 91 8 35 1 58 16 66 42 13 41 13 41 69 1 55 -40 56 -40
91 0 38 41 90 53 90 20 0 -11 -22 -31 -49 -45 -27 -14 -49 -33 -50 -41 -1 -8
-1 -28 -1 -45 0 -35 -62 -40 -93 -9 -15 15 -31 12 -53 -10 -39 -39 -82 -40
-114 0 -23 27 -29 27 -59 0 -19 -17 -47 -31 -64 -31 -16 0 -40 -11 -54 -25
-20 -20 -28 -19 -40 1 -12 18 -30 20 -65 7 -44 -17 -50 -13 -54 29 -3 39 6 48
46 48 28 0 61 17 75 40 13 22 36 40 50 40 14 0 25 14 25 30 0 17 6 30 12 30 7
0 8 -17 3 -39z m730 -38 c2 -24 16 -43 30 -43 15 0 22 -9 15 -20 -31 -50 -130
-22 -130 36 0 104 78 128 85 27z m-1683 -174 c21 -59 38 -134 38 -165 0 -32
18 -74 40 -94 22 -20 50 -66 64 -103 13 -37 29 -67 35 -67 6 0 12 -23 14 -50
1 -28 -5 -50 -15 -50 -10 0 -18 17 -18 38 0 45 -36 75 -90 73 -31 -1 -40 -15
-41 -61 -1 -72 -47 -81 -80 -15 -12 25 -38 61 -56 81 -49 55 -42 64 49 64 87
0 104 44 21 56 -56 9 -307 -74 -293 -96 18 -28 -70 -45 -101 -19 -23 19 -35
12 -64 -38 -23 -42 -46 -59 -68 -52 -38 12 -63 -39 -46 -94 22 -71 -61 -43
-97 33 -18 39 -42 70 -54 70 -72 0 3 38 120 60 167 32 176 49 35 70 -171 26
-248 0 -228 -75 6 -21 -6 -65 -26 -98 -98 -162 101 -353 256 -245 54 38 80 23
42 -23 -22 -27 -22 -35 2 -51 25 -17 25 -19 -1 -14 -47 9 -160 -46 -160 -78 0
-15 8 -23 19 -17 10 6 23 4 29 -6 7 -10 -6 -23 -28 -29 -24 -6 -40 -27 -40
-54 0 -38 -3 -40 -30 -13 -35 35 -40 75 -8 68 13 -3 28 8 33 23 7 20 0 25 -22
16 -21 -8 -33 -2 -33 15 0 16 -14 42 -31 59 -79 79 -128 349 -92 512 11 50 13
133 5 185 -16 99 28 244 59 194 10 -17 18 -17 28 -1 7 12 31 22 53 22 21 0 89
27 151 60 96 51 135 60 265 61 102 0 165 10 191 30 53 40 120 -30 173 -182z
m1428 151 c17 15 31 15 39 2 7 -11 24 -16 38 -10 18 7 27 -18 30 -86 3 -52 -1
-89 -8 -81 -8 7 -27 0 -44 -17 -41 -41 -97 9 -110 98 -10 68 6 142 21 97 6
-18 15 -19 34 -3z m299 -166 c22 -22 20 -31 -11 -50 -50 -32 -56 -30 -48 11 4
19 8 42 8 50 3 22 22 18 51 -11z m-929 -322 c0 -15 -12 -32 -27 -38 -36 -14
-81 16 -64 44 19 32 91 27 91 -6z m-102 -52 c41 0 115 -73 95 -93 -7 -8 -31 3
-53 23 -22 20 -40 29 -40 21 0 -9 -13 -5 -30 9 -24 20 -32 18 -42 -8 -14 -36
-68 -44 -68 -9 0 36 89 112 96 82 4 -14 23 -25 42 -25z m-987 -169 c16 -15 29
-34 29 -40 0 -7 36 -50 81 -97 l81 -84 -116 -35 c-173 -53 -277 -41 -272 30 2
39 -4 51 -20 41 -13 -8 1 15 31 51 30 37 55 88 55 115 0 56 82 69 131 19z
m475 -75 c-12 -14 -27 -58 -34 -98 -19 -108 -79 -126 -164 -50 -77 67 -76 71
13 83 67 8 145 63 128 90 -13 22 37 37 59 17 11 -10 10 -27 -2 -42z m-994
-1066 c10 -41 18 -46 50 -29 30 16 35 14 25 -11 -6 -16 -1 -30 12 -30 12 0 43
-19 67 -41 24 -23 69 -47 99 -53 54 -11 78 -46 31 -46 -19 0 -19 -5 0 -24 35
-35 29 -56 -16 -56 -22 0 -40 13 -40 30 0 23 -13 27 -50 18 -37 -9 -50 -4 -50
19 0 17 -12 38 -26 47 -27 16 -154 194 -154 215 0 34 41 4 52 -39z m-524 -21
c6 -17 19 -27 27 -22 8 5 15 -12 15 -39 0 -26 -7 -48 -15 -48 -8 0 -15 -13
-15 -30 0 -16 9 -30 20 -30 11 0 20 -9 20 -20 0 -28 -41 -16 -87 24 -22 19
-45 31 -53 26 -8 -5 -31 5 -52 21 -37 29 -37 30 2 25 23 -4 38 4 35 19 -3 14
6 25 18 25 13 0 18 6 11 13 -15 15 22 67 46 67 9 0 21 -14 28 -31z m288 -22
c-10 -51 -73 -83 -95 -48 -13 20 -6 36 25 53 62 34 78 33 70 -5z"/>
<path d="M2680 2629 c0 -62 43 -88 89 -54 26 19 43 42 38 50 -11 17 -127 21
-127 4z"/>
<path d="M2110 1668 c-38 -20 -88 -28 -135 -22 -69 9 -75 6 -75 -40 0 -40 7
-47 35 -37 28 11 30 8 10 -12 -28 -28 -34 -65 -8 -49 25 15 103 -46 103 -80 0
-17 9 -25 20 -18 12 7 16 20 11 29 -6 9 6 38 26 64 20 26 33 58 28 72 -5 15 3
21 19 15 19 -8 29 8 32 50 3 33 2 60 -1 60 -3 0 -32 -14 -65 -32z"/>
<path d="M2181 1444 c50 -63 49 -97 -1 -124 -53 -29 -105 -133 -90 -181 7 -22
22 -34 32 -28 11 7 14 31 7 53 -9 27 -6 36 9 27 13 -8 22 3 22 29 0 29 8 37
25 27 17 -10 16 -4 -2 19 -18 22 -20 34 -6 34 65 0 101 64 66 117 -18 29 -22
45 -8 36 14 -9 25 -6 25 6 0 11 -7 22 -15 23 -8 1 -35 4 -59 6 -43 5 -43 5 -5
-44z"/>
<path d="M2122 1395 c-2 -28 -13 -33 -55 -23 -39 10 -50 7 -43 -14 21 -64 127
-31 110 34 -8 34 -10 34 -12 3z"/>
<path d="M2007 1250 c-1 -39 6 -70 15 -70 29 0 29 95 1 125 -8 8 -15 -17 -16
-55z"/>
<path d="M2255 1277 c-5 -15 -2 -42 8 -61 10 -20 9 -38 -3 -46 -11 -7 -20 -36
-20 -65 0 -51 1 -51 29 -14 33 43 40 144 13 186 -14 23 -19 23 -27 0z"/>
<path d="M2380 1199 c0 -59 41 -100 71 -71 15 16 40 33 54 37 14 5 19 16 11
25 -8 8 -30 9 -50 1 -39 -15 -59 -10 -51 14 3 8 -4 15 -15 15 -11 0 -20 -10
-20 -21z"/>
<path d="M1685 1128 c-37 -39 -30 -66 15 -62 23 1 37 13 32 27 -6 13 1 28 13
32 15 5 12 12 -6 19 -16 6 -40 -1 -54 -16z"/>
<path d="M2294 1087 c-21 -20 -17 -87 5 -87 10 0 24 9 31 20 15 25 -17 86 -36
67z"/>
<path d="M2065 1025 c-35 -36 -41 -55 -26 -83 11 -20 14 -42 7 -49 -7 -7 -2
-13 11 -13 13 0 23 30 23 69 0 51 10 72 40 81 44 14 55 44 15 42 -14 0 -45
-22 -70 -47z"/>
<path d="M2215 2588 c-30 -16 -55 -35 -55 -42 0 -7 6 -7 13 0 7 8 25 4 40 -8
19 -16 34 -13 59 11 48 48 9 74 -57 39z"/>
<path d="M3510 4440 c-7 -11 -2 -20 11 -20 16 0 20 -26 11 -85 -6 -47 -17
-143 -23 -214 -8 -87 -23 -137 -45 -154 -22 -16 -25 -26 -9 -26 14 -1 25 -14
25 -31 0 -49 38 -34 52 20 7 28 25 50 40 50 15 0 28 9 28 20 0 11 -14 20 -31
20 -33 0 -31 81 7 325 17 112 -21 167 -66 95z"/>
<path d="M3967 4430 c-6 -16 -6 -43 0 -59 6 -17 4 -34 -5 -40 -9 -5 -12 -33
-7 -61 7 -37 1 -50 -23 -50 -43 0 -41 -35 3 -46 19 -5 -3 -10 -49 -12 -91 -2
-127 -82 -37 -82 30 1 34 5 14 18 -20 12 -12 20 27 30 61 15 79 5 80 -44 0
-18 16 -36 35 -40 40 -8 45 70 22 293 -12 119 -36 155 -60 93z"/>
<path d="M4367 4431 c7 -18 -6 -34 -33 -43 -43 -14 -43 -15 8 -32 30 -10 71
-9 100 2 35 14 38 20 13 21 -37 1 -50 41 -14 41 12 0 16 9 9 20 -20 33 -96 25
-83 -9z"/>
<path d="M4565 4420 c2 -24 18 -40 39 -40 23 0 36 15 36 40 0 26 -13 40 -39
40 -26 0 -38 -13 -36 -40z"/>
<path d="M4735 4447 c14 -6 25 -35 25 -65 0 -30 11 -65 24 -78 19 -19 18 -24
-1 -24 -14 0 -19 -10 -12 -21 20 -34 65 43 59 101 -3 28 -6 61 -7 75 -2 14
-28 24 -58 23 -30 0 -44 -6 -30 -11z"/>
<path d="M4900 4440 c-22 -14 -7 -19 55 -20 47 0 85 9 85 20 0 26 -101 26
-140 0z"/>
<path d="M5096 4415 c-4 -25 10 -76 30 -115 21 -38 27 -60 14 -47 -13 12 -41
18 -62 12 -44 -11 -52 -45 -10 -45 15 0 42 -22 60 -50 30 -45 30 -50 1 -50
-17 0 -26 -8 -20 -19 6 -10 2 -24 -10 -31 -14 -10 -14 -22 2 -42 19 -22 17
-28 -12 -28 -34 0 -34 -2 2 -29 38 -29 38 -30 -1 -32 -159 -8 -225 -39 -83
-39 84 0 96 -6 114 -55 10 -30 28 -71 39 -90 30 -53 24 -72 -25 -79 -30 -4
-43 -18 -39 -41 3 -19 -6 -36 -20 -36 -14 -1 -6 -10 19 -20 44 -17 62 -86 28
-107 -22 -14 -16 -73 12 -122 21 -35 24 -29 24 45 1 47 10 85 22 85 13 0 16
-56 10 -154 -8 -122 -3 -161 21 -188 29 -32 28 -37 -11 -58 -32 -16 -39 -34
-30 -64 11 -33 7 -39 -18 -30 -17 7 -37 4 -44 -7 -6 -10 6 -19 26 -19 28 0 38
-14 38 -55 0 -52 -4 -55 -76 -48 -57 5 -80 -1 -89 -25 -7 -18 -27 -33 -45 -34
-18 0 -23 -5 -11 -10 12 -5 46 4 76 19 68 35 132 21 132 -29 0 -21 8 -38 18
-38 53 0 35 -61 -24 -78 -61 -18 -62 -19 -17 -33 58 -18 20 -48 -61 -49 -29 0
-59 -9 -66 -20 -16 -26 -90 -26 -90 0 0 11 20 21 45 22 25 1 -4 14 -64 29
-119 29 -139 25 -103 -19 18 -22 18 -30 -2 -38 -87 -32 99 -53 197 -22 64 20
119 27 141 17 30 -14 25 -18 -24 -25 -62 -8 -110 -37 -110 -66 0 -9 23 -6 52
7 45 20 56 18 80 -14 36 -50 29 -206 -11 -222 -26 -10 -26 -14 0 -32 23 -16
23 -22 3 -30 -18 -8 -12 -25 23 -59 79 -79 116 -283 66 -364 -10 -15 3 -31 34
-43 27 -10 53 -30 58 -45 15 -41 34 -9 40 66 5 58 14 69 60 74 30 4 55 16 55
27 0 12 -25 15 -63 6 -43 -9 -58 -7 -48 9 7 12 35 22 62 22 27 0 49 9 49 20 0
11 -27 20 -60 20 -43 0 -61 10 -63 35 -6 63 -8 75 -19 95 -10 19 -15 58 -24
200 -4 58 -1 60 91 66 126 8 142 106 16 101 -55 -2 -60 -4 -21 -11 85 -16 94
-46 14 -46 -41 0 -80 0 -88 0 -7 0 -16 49 -20 110 l-7 110 100 0 c54 0 104 9
111 20 7 11 39 20 72 20 33 0 55 8 49 19 -7 11 -36 11 -76 0 -86 -25 -255 -24
-255 1 0 11 50 20 110 20 61 0 110 8 110 17 0 10 -52 17 -115 15 -104 -2 -115
2 -111 38 3 22 7 74 9 115 l4 75 104 0 c103 0 134 20 114 75 -4 14 -28 24 -52
23 -33 -2 -35 -5 -8 -12 57 -15 40 -43 -34 -57 -88 -17 -121 -5 -121 43 0 53
27 67 126 68 54 0 89 10 96 28 6 15 30 34 54 42 40 13 41 15 6 24 -20 6 -44
-1 -52 -15 -24 -37 -220 -51 -242 -17 -68 107 43 185 216 152 60 -11 106 1
106 28 0 11 -75 13 -172 7 -120 -8 -168 -5 -159 10 7 11 62 21 121 21 59 0
114 10 121 22 10 15 -27 20 -121 15 l-135 -7 -6 96 c-3 52 -11 129 -19 171
-17 104 22 138 125 107 48 -15 81 -16 93 -4 34 34 55 22 41 -22 -10 -33 -5
-40 23 -35 29 6 36 29 39 127 7 219 4 210 64 209 49 -2 51 -4 15 -19 -38 -17
-38 -18 8 -32 45 -13 46 -16 11 -41 -22 -17 -27 -27 -11 -27 15 0 21 -13 15
-29 -6 -17 -3 -35 8 -42 38 -23 20 -104 -26 -119 -43 -14 -43 -15 -5 -24 50
-13 73 -47 57 -86 -7 -16 -11 -64 -9 -105 3 -60 -4 -75 -32 -76 -30 -1 -29 -4
6 -18 64 -26 65 -295 1 -346 l-43 -34 46 -1 c51 0 76 -43 53 -95 -8 -19 -13
-44 -10 -55 31 -129 22 -325 -17 -335 -55 -15 -54 -55 2 -55 43 0 43 -1 5 -29
-37 -28 -37 -30 -2 -30 23 -1 33 -11 27 -28 -6 -15 -1 -70 10 -123 18 -83 16
-99 -13 -115 -31 -17 -31 -22 -3 -53 31 -34 35 -229 5 -277 -7 -12 -5 -28 5
-34 11 -6 20 -27 21 -46 1 -19 5 -116 8 -215 6 -170 26 -502 44 -717 4 -53 14
-175 21 -270 7 -95 15 -195 19 -223 3 -27 7 -106 8 -175 1 -97 8 -125 31 -125
17 0 30 16 30 35 0 124 -43 1020 -60 1235 -24 325 -35 566 -61 1310 -11 325
-29 716 -39 870 -11 154 -24 397 -30 540 -11 310 -29 470 -53 470 -9 0 -17
-13 -17 -30 0 -16 -10 -30 -22 -30 -17 0 -16 -8 1 -28 17 -22 17 -32 0 -43
-17 -10 -16 -18 3 -30 37 -23 49 -220 15 -241 -64 -41 -77 -20 -77 130 0 200
-17 280 -52 250 -15 -12 -23 -30 -17 -39 5 -9 1 -22 -11 -29 -30 -19 -24 -50
10 -50 30 0 32 -49 3 -95 -8 -14 -10 -33 -4 -44 6 -10 2 -24 -11 -32 -16 -10
-14 -19 5 -31 37 -23 41 -238 4 -252 -32 -12 -36 -66 -6 -66 12 0 16 -9 9 -20
-7 -11 -37 -19 -66 -18 -41 2 -44 5 -15 13 36 9 35 11 -10 37 -38 20 -41 27
-14 27 53 1 42 35 -17 50 -59 14 -91 -2 -51 -27 34 -21 21 -69 -24 -87 -56
-23 -66 -7 -71 114 -3 95 1 111 32 111 52 -1 93 -32 77 -58 -8 -14 4 -22 33
-22 37 1 40 4 16 20 -24 16 -21 19 15 20 56 0 59 40 5 54 -22 6 -34 20 -27 31
17 28 -33 54 -105 55 -62 0 -88 63 -88 214 0 55 65 17 72 -41 7 -68 71 -174
83 -137 5 14 -6 56 -23 94 -18 37 -31 75 -28 84 2 9 -7 36 -21 61 -14 25 -19
55 -13 65 7 11 2 20 -10 20 -12 0 -20 -19 -16 -43 3 -24 -5 -47 -19 -52 -16
-5 -25 11 -25 43 0 68 -74 74 -84 7z"/>
<path d="M5796 4425 c-18 -21 -18 -31 0 -42 13 -8 19 -35 15 -60 -30 -154 -13
-843 20 -856 43 -17 45 -10 53 113 6 106 9 110 61 106 38 -2 55 6 55 28 0 24
-14 28 -61 19 l-60 -12 5 204 6 205 55 -4 c48 -3 55 4 55 55 0 41 -10 59 -32
59 -26 0 -28 -6 -10 -28 18 -21 16 -30 -9 -40 -61 -23 -69 -11 -69 106 0 121
23 155 90 129 18 -7 30 0 30 18 0 39 -172 39 -204 0z"/>
<path d="M3360 4388 c0 -27 -5 -28 -30 -8 -32 27 -33 25 -36 -45 -2 -45 67
-56 83 -13 3 10 28 18 55 18 32 0 48 11 48 35 -1 30 -3 31 -20 5 -17 -26 -19
-25 -20 5 0 22 -15 35 -40 35 -24 0 -40 -13 -40 -32z"/>
<path d="M1232 4368 c-7 -17 -12 -33 -12 -35 0 -14 160 0 160 14 0 11 -6 14
-13 7 -7 -7 -31 1 -54 17 -53 37 -66 36 -81 -3z"/>
<path d="M3104 4376 c-28 -28 -32 -76 -6 -76 46 0 82 27 82 62 0 43 -40 50
-76 14z"/>
<path d="M3620 4173 c0 -279 -16 -370 -62 -358 -21 5 -38 0 -38 -13 0 -12 18
-22 40 -22 27 0 40 -13 40 -40 0 -28 -14 -40 -45 -41 -40 0 -41 -2 -10 -21 19
-11 44 -15 55 -8 11 7 20 -2 20 -19 0 -17 -14 -31 -30 -31 -27 0 -27 -8 -3
-65 16 -39 21 -82 11 -105 -12 -32 -15 -33 -17 -6 -1 42 -33 63 -65 44 -16
-10 -11 -20 15 -30 31 -12 25 -15 -26 -17 -79 -1 -88 -41 -10 -41 65 -1 93
-17 111 -65 7 -19 23 -35 36 -35 12 0 17 13 11 29 -6 17 -3 35 6 40 20 13 17
49 -6 86 -25 40 7 69 61 56 40 -10 48 -6 42 23 -4 20 -24 36 -46 36 -37 0 -40
14 -41 171 -1 94 -8 181 -16 195 -23 36 5 67 54 60 28 -4 43 5 43 24 0 19 -16
28 -45 25 -41 -4 -45 4 -45 90 1 69 6 87 20 65 11 -16 20 -46 20 -65 0 -19 9
-35 21 -35 12 0 18 45 15 115 -5 95 -12 115 -41 112 -19 -1 -35 5 -35 15 0 10
-9 18 -20 18 -12 0 -20 -76 -20 -187z"/>
<path d="M4110 4341 c-37 -15 -37 -18 -5 -31 43 -17 135 3 135 30 0 24 -74 24
-130 1z"/>
<path d="M4489 4301 c-10 -10 -59 -21 -107 -25 -49 -3 -92 -16 -96 -29 -5 -13
8 -22 28 -20 20 2 34 -8 31 -22 -3 -14 14 -25 36 -25 23 0 36 8 30 18 -6 10
11 23 37 30 26 6 52 30 58 52 12 45 10 48 -17 21z"/>
<path d="M4706 4293 c9 -24 -2 -36 -42 -44 -103 -23 -112 -29 -88 -53 16 -16
30 -16 53 3 17 14 49 21 71 15 30 -8 40 0 40 28 0 21 1 45 2 53 0 7 -10 18
-24 22 -15 5 -20 -3 -12 -24z"/>
<path d="M5375 4250 c10 -51 33 -65 54 -32 16 27 -9 82 -38 82 -16 0 -22 -18
-16 -50z"/>
<path d="M4690 4138 c4 -57 43 -73 56 -24 7 29 10 27 12 -9 2 -51 91 -84 127
-48 13 13 47 23 76 23 65 0 77 12 64 61 -10 42 -93 55 -115 18 -9 -13 7 -17
43 -10 54 11 54 10 -9 -19 -59 -28 -69 -28 -96 0 -17 16 -41 30 -54 30 -13 0
-43 6 -66 12 -34 9 -41 2 -38 -34z"/>
<path d="M4302 4141 c-18 -11 -11 -20 24 -28 53 -14 174 4 174 25 0 18 -169
21 -198 3z"/>
<path d="M4313 4050 c7 -19 0 -30 -20 -30 -17 0 -36 -8 -42 -18 -12 -20 215
-13 248 7 60 37 18 71 -88 71 -89 0 -108 -6 -98 -30z"/>
<path d="M5966 4024 c-27 -17 -13 -104 16 -104 10 0 18 27 18 60 0 66 0 66
-34 44z"/>
<path d="M4660 4000 c-25 -16 -23 -20 10 -21 22 -1 29 -7 15 -12 -46 -19 -27
-67 27 -67 39 0 49 8 40 32 -7 17 -12 44 -12 60 0 32 -36 36 -80 8z"/>
<path d="M3880 3980 c0 -11 18 -20 40 -20 48 0 53 -51 7 -76 -27 -16 -19 -23
41 -43 66 -22 140 -9 78 13 -17 6 -19 23 -4 61 14 38 13 56 -6 68 -37 23 -156
21 -156 -3z"/>
<path d="M4934 3978 c-19 -11 -63 -15 -96 -8 l-60 14 6 -87 c6 -80 96 -154 96
-78 0 11 -11 21 -25 22 -14 0 -8 10 12 22 29 16 32 26 12 37 -33 21 77 76 128
65 24 -6 33 -1 24 13 -17 27 -50 27 -97 0z"/>
<path d="M3760 3940 c0 -11 -12 -20 -26 -20 -26 0 -29 -139 -4 -180 19 -31 50
-3 36 33 -6 17 1 39 16 49 20 12 21 17 3 18 -14 0 -25 18 -25 40 0 29 13 40
50 40 28 0 50 9 50 20 0 11 -22 20 -50 20 -27 0 -50 -9 -50 -20z"/>
<path d="M4512 3944 c-8 -14 -60 -24 -122 -24 -118 0 -170 -14 -170 -45 0 -26
275 -8 304 21 11 11 17 32 12 46 -7 20 -12 20 -24 2z"/>
<path d="M4133 3887 c-27 -27 -14 -86 17 -74 17 6 30 28 30 49 0 38 -22 50
-47 25z"/>
<path d="M4705 3855 c3 -14 -19 -28 -50 -31 -30 -4 -55 -16 -55 -27 0 -13 20
-16 49 -9 27 7 54 3 61 -8 7 -11 3 -20 -8 -20 -11 0 -16 -13 -9 -30 8 -21 -1
-30 -30 -30 -22 0 -46 -9 -53 -20 -7 -12 16 -20 57 -20 63 0 69 6 76 65 9 86
-1 155 -24 155 -11 0 -17 -11 -14 -25z"/>
<path d="M5940 3862 c0 -10 11 -23 25 -29 20 -8 19 -14 -2 -29 -21 -15 -20
-21 5 -31 25 -9 32 2 32 48 0 39 -10 59 -30 59 -16 0 -30 -8 -30 -18z"/>
<path d="M3926 3782 c-21 -34 -17 -41 38 -60 85 -30 96 -28 96 18 0 32 -64 80
-106 80 -3 0 -15 -17 -28 -38z"/>
<path d="M4290 3779 c-28 -11 -8 -17 68 -18 60 0 105 2 100 6 -22 19 -132 27
-168 12z"/>
<path d="M4500 3780 c49 -32 -15 -63 -110 -53 -44 4 -102 0 -130 -9 -34 -11 1
-15 105 -12 152 5 199 -10 110 -33 -25 -7 -92 -13 -150 -13 -58 0 -105 -7
-105 -15 0 -9 70 -14 155 -11 107 3 140 -1 105 -13 -27 -9 -97 -18 -155 -19
-157 -3 -128 -42 31 -42 174 0 200 20 189 145 -7 72 -17 95 -42 95 -29 -1 -29
-3 -3 -20z"/>
<path d="M4790 3700 c7 -11 3 -20 -9 -20 -26 0 -5 -103 24 -123 11 -7 8 -17
-8 -23 -23 -9 -23 -14 0 -30 23 -16 23 -21 0 -30 -35 -14 15 -53 68 -54 39 0
49 39 10 41 -14 1 -7 9 15 18 38 16 38 18 -9 36 -46 18 -42 20 45 33 111 17
129 54 19 41 -73 -9 -66 -2 31 34 26 9 41 26 34 36 -7 12 -29 12 -59 -2 -33
-15 -57 -15 -84 0 -21 13 -26 22 -11 22 43 1 5 41 -38 41 -22 0 -35 -9 -28
-20z"/>
<path d="M3804 3629 c-61 -43 -38 -69 62 -71 95 -2 214 -32 144 -36 -33 -2
-35 -6 -10 -22 22 -14 6 -20 -60 -22 l-90 -2 90 -26 90 -26 -90 -4 c-81 -4
-84 -6 -30 -18 57 -13 56 -14 -30 -27 -95 -13 -167 16 -116 48 20 12 18 16 -7
17 -18 0 -37 -18 -43 -40 -8 -30 0 -40 28 -40 21 0 38 -9 38 -20 0 -11 -10
-20 -23 -20 -13 0 -18 -6 -11 -13 7 -7 27 -1 44 13 27 23 146 21 248 -4 15 -3
30 14 34 39 4 25 -2 45 -15 45 -15 0 -14 9 3 30 17 20 18 30 3 30 -16 0 -16
16 -2 53 15 40 14 58 -5 70 -20 13 -19 17 4 17 23 1 21 8 -9 31 -51 38 -190
37 -247 -2z"/>
<path d="M5380 3597 l50 -23 -60 -15 c-33 -8 -46 -15 -30 -17 17 -1 50 -8 75
-15 39 -10 44 -5 38 36 -5 36 -21 48 -65 52 l-58 4 50 -22z"/>
<path d="M5340 3480 c0 -31 184 -45 212 -16 23 22 8 27 -92 29 -66 2 -120 -4
-120 -13z"/>
<path d="M4140 3423 c0 -33 -6 -75 -13 -94 -9 -23 -5 -32 13 -26 30 10 45 152
18 168 -10 6 -18 -15 -18 -48z"/>
<path d="M4510 3440 c-22 -9 -92 -18 -155 -19 -68 0 -115 -10 -115 -23 0 -31
262 -1 299 34 33 31 29 33 -29 8z"/>
<path d="M4650 3413 c33 -14 57 -34 54 -44 -4 -10 3 -21 15 -25 11 -4 21 16
21 44 0 47 -7 52 -75 51 l-75 -1 60 -25z"/>
<path d="M5893 3410 c-17 -16 -45 -30 -64 -30 -22 0 -29 -11 -21 -32 7 -17 12
-67 12 -110 0 -125 53 -102 56 25 2 108 28 144 89 125 23 -7 35 0 35 21 0 40
-68 40 -107 1z"/>
<path d="M4510 3379 c-22 -9 -92 -17 -155 -18 -111 -1 -115 -3 -115 -54 l0
-52 141 10 c152 11 186 28 176 90 -6 31 -16 36 -47 24z"/>
<path d="M4764 3337 c12 -36 122 -65 185 -49 63 16 67 48 6 46 -25 -1 -80 5
-122 13 -59 12 -75 10 -69 -10z"/>
<path d="M4630 3300 c7 -11 26 -20 42 -20 20 0 12 -16 -24 -47 -45 -38 -50
-52 -32 -85 21 -34 23 -33 23 19 1 51 6 56 51 45 45 -12 50 -7 50 48 0 54 -6
60 -61 60 -36 0 -56 -8 -49 -20z"/>
<path d="M5033 3267 c-26 -27 -12 -37 57 -41 49 -2 70 5 70 25 0 30 -101 42
-127 16z"/>
<path d="M3979 3218 c28 -11 56 -31 64 -43 20 -33 45 -4 30 34 -7 20 -36 31
-77 30 -64 -1 -64 -2 -17 -21z"/>
<path d="M4780 3202 c0 -12 11 -22 25 -22 18 -1 19 -5 2 -15 -69 -46 -18 -115
90 -121 75 -4 103 0 93 16 -8 13 -25 18 -39 13 -13 -5 -37 -1 -53 9 -24 15
-23 18 2 18 23 1 21 8 -9 31 -37 28 -37 29 14 29 29 0 58 9 65 20 7 11 -8 19
-34 17 -25 -1 -71 4 -101 12 -36 10 -55 8 -55 -7z"/>
<path d="M5370 3200 c-30 -13 -16 -18 55 -19 52 0 95 8 95 19 0 24 -94 24
-150 0z"/>
<path d="M4410 3185 c-66 -4 -129 -17 -140 -29 -27 -28 249 -5 278 24 11 11
12 18 1 16 -10 -2 -73 -7 -139 -11z"/>
<path d="M5951 3182 c-6 -10 0 -24 14 -30 20 -10 20 -14 0 -24 -35 -16 -31
-48 5 -48 20 0 30 20 30 60 0 58 -26 80 -49 42z"/>
<path d="M4380 3108 l-130 -26 150 9 c82 6 158 19 169 30 25 25 -23 22 -189
-13z"/>
<path d="M5040 3120 l-50 -16 53 -2 c30 -1 68 -7 85 -14 21 -8 32 -1 32 20 0
34 -38 38 -120 12z"/>
<path d="M5828 3085 c5 -30 9 -62 10 -70 6 -50 42 -3 42 55 0 50 -9 70 -31 70
-22 0 -28 -15 -21 -55z"/>
<path d="M4640 3042 c0 -18 47 -42 82 -42 10 0 18 14 18 30 0 19 -19 30 -50
30 -27 0 -50 -8 -50 -18z"/>
<path d="M4780 3002 c0 -25 7 -26 168 -31 131 -4 98 16 -63 38 -71 10 -105 8
-105 -7z"/>
<path d="M4693 2950 c7 -19 -1 -30 -21 -30 -51 0 -37 -34 18 -45 54 -10 86 13
49 36 -12 7 -17 26 -11 41 6 16 -2 28 -18 28 -17 0 -24 -12 -17 -30z"/>
<path d="M5920 2960 c-24 -16 -21 -19 16 -20 28 0 41 -9 33 -21 -7 -12 -38
-16 -71 -9 l-57 13 2 -101 c1 -56 10 -102 20 -102 11 0 17 11 15 25 -2 14 3
42 12 62 10 24 6 43 -12 54 -17 11 1 13 47 6 73 -12 75 -11 75 50 0 65 -25 78
-80 43z"/>
<path d="M5392 2841 c32 -31 208 -35 208 -5 0 10 -51 18 -113 20 -67 2 -106
-4 -95 -15z"/>
<path d="M4785 2775 c4 -68 215 -122 215 -55 0 11 -21 20 -48 20 -31 0 -51 14
-58 40 -16 60 -112 56 -109 -5z"/>
<path d="M5376 2777 c-34 -10 -24 -14 37 -15 46 -1 87 -11 90 -21 9 -27 97 -2
97 26 0 25 -147 32 -224 10z"/>
<path d="M4640 2642 c0 -19 93 -42 109 -26 5 5 5 17 -1 27 -14 22 -108 22
-108 -1z"/>
<path d="M5920 2570 c-14 -16 -37 -30 -52 -30 -16 0 -28 -9 -28 -20 0 -11 13
-20 29 -20 16 0 34 9 41 20 7 11 30 20 51 20 22 0 39 14 39 30 0 17 -12 30
-28 30 -15 0 -38 -13 -52 -30z"/>
<path d="M4630 2560 c-7 -11 10 -20 38 -20 37 0 48 -8 39 -30 -7 -18 0 -30 16
-30 15 0 28 23 30 50 3 53 -94 76 -123 30z"/>
<path d="M4792 2485 c-25 -25 16 -45 93 -45 45 0 76 5 70 12 -18 18 -152 45
-163 33z"/>
<path d="M5460 2469 l-130 -25 138 3 c91 2 142 12 147 28 5 14 1 24 -8 23 -9
-2 -75 -14 -147 -29z"/>
<path d="M5960 2420 c-25 -17 -25 -23 -3 -38 23 -14 21 -21 -7 -37 -32 -17
-31 -20 8 -30 37 -10 42 -3 42 57 0 76 1 75 -40 48z"/>
<path d="M4524 2379 c-36 -8 -72 -21 -80 -30 -16 -16 135 3 152 20 20 21 -6
24 -72 10z"/>
<path d="M4800 2345 c0 -28 105 -46 129 -23 12 11 8 18 -10 18 -16 0 -49 6
-74 13 -25 6 -45 3 -45 -8z"/>
<path d="M5592 2324 c-5 -10 -6 -46 -2 -80 l8 -64 -124 -3 -124 -3 126 -20
c91 -14 123 -27 116 -46 -6 -15 -2 -32 9 -39 11 -7 19 45 19 130 0 135 -6 160
-28 125z"/>
<path d="M3702 2268 c-35 -15 -93 -58 -130 -97 -45 -47 -86 -72 -124 -73 -32
-1 -80 -10 -108 -19 -39 -13 -25 -17 60 -15 193 4 194 4 207 -82 17 -104 107
-182 211 -182 126 0 96 -113 -35 -131 -51 -7 -133 -26 -181 -42 -65 -21 -92
-23 -103 -6 -7 12 -35 33 -61 46 -54 27 -89 88 -119 210 -21 83 -23 85 -65 57
-24 -16 -43 -37 -41 -46 1 -10 -7 -40 -18 -68 -11 -27 -19 -75 -17 -105 1 -31
-11 -81 -27 -113 -16 -31 -25 -61 -19 -67 5 -5 14 -94 18 -197 11 -224 27
-334 52 -349 39 -24 17 -50 -24 -28 -57 30 -65 16 -40 -74 12 -42 22 -103 22
-135 0 -54 3 -57 71 -46 87 14 156 -14 249 -101 102 -96 182 -114 408 -92 132
12 194 11 199 -3 5 -12 44 -18 89 -14 l81 8 30 133 c52 223 56 308 24 504 -36
221 -39 306 -11 289 11 -7 20 7 20 32 0 24 34 81 75 128 179 201 243 288 249
340 9 80 -37 84 -73 6 -27 -59 -30 -61 -27 -16 4 70 -63 197 -113 212 -22 7
-57 30 -77 50 -72 76 -234 -1 -234 -111 0 -34 38 -4 48 39 7 28 27 50 45 50
40 0 22 -118 -23 -152 -68 -51 82 -248 216 -285 l64 -17 -75 -32 c-55 -23 -75
-44 -76 -78 -1 -43 -3 -42 -33 14 -30 55 -37 80 -46 170 -1 18 -10 11 -22 -17
-15 -39 -29 -46 -74 -37 -31 6 -87 5 -125 -4 -125 -28 -157 16 -70 97 163 153
147 458 -25 464 -41 1 -93 4 -117 7 -23 2 -71 -8 -105 -22z m138 -77 c0 -16
-9 -34 -20 -41 -30 -18 -24 -82 10 -110 36 -30 21 -60 -31 -60 -27 0 -39 -14
-39 -44 0 -71 -52 -2 -69 91 -12 66 -8 78 28 87 33 9 37 17 19 38 -18 22 -12
32 25 47 66 26 77 25 77 -8z m547 -196 c10 -76 6 -95 -17 -95 -17 0 -30 -18
-30 -40 0 -48 -31 -53 -48 -8 -28 74 1 191 57 232 25 18 23 22 38 -89z m-780
-484 c7 -18 -2 -23 -27 -17 -25 7 -35 -1 -33 -25 2 -19 -10 -39 -27 -45 -25
-9 -26 -5 -5 20 13 16 19 35 12 42 -6 7 -7 26 0 43 13 34 64 22 80 -18z m528
36 c104 -28 43 -57 -110 -52 -168 5 -155 -22 21 -45 108 -14 114 -40 21 -92
-62 -34 -167 -30 -167 7 0 11 -16 15 -36 10 -34 -9 -104 92 -80 115 46 46 262
81 351 57z m-728 -56 c29 7 53 8 53 1 0 -25 -82 -93 -99 -83 -10 6 -22 0 -27
-14 -4 -14 -15 -19 -23 -12 -8 8 -4 32 8 55 16 30 16 42 1 42 -13 0 -16 10 -9
22 10 16 18 16 28 -1 9 -14 35 -18 68 -10z m308 -74 c-8 -54 -1 -66 48 -84 51
-20 56 -29 45 -87 -8 -41 -4 -66 9 -66 29 0 54 46 29 55 -24 8 -9 105 16 105
10 0 18 -18 18 -40 0 -49 31 -52 58 -5 20 33 21 33 21 0 1 -19 8 -35 18 -35 9
0 15 -31 14 -70 -2 -44 7 -70 23 -70 14 0 20 13 13 30 -6 17 0 31 16 31 15 1
9 10 -13 19 -37 16 -37 17 7 19 38 1 46 -7 37 -39 -12 -48 23 -77 47 -38 22
36 43 13 27 -30 -8 -22 -26 -29 -50 -21 -46 14 -49 -24 -7 -80 25 -34 29 -34
29 -5 0 19 14 34 30 34 41 0 38 -19 -9 -59 -47 -41 -80 -201 -41 -201 15 0 21
16 14 41 -9 36 -7 38 21 15 28 -23 30 -20 21 17 -8 32 -1 46 28 54 36 9 39 3
28 -53 -7 -35 -18 -102 -25 -148 -14 -99 -60 -132 -60 -43 0 87 -37 114 -84
61 -21 -24 -47 -44 -59 -44 -11 0 -25 -11 -31 -25 -7 -19 -15 -18 -31 5 -25
35 -28 62 -7 55 8 -3 15 4 15 15 0 11 -22 20 -50 21 -53 1 -61 68 -15 124 11
14 15 32 8 39 -7 7 -13 2 -13 -11 0 -13 -11 -23 -25 -23 -15 0 -26 -28 -27
-70 0 -39 6 -70 15 -70 10 0 15 -31 12 -68 -5 -64 -35 -82 -35 -21 0 39 -34
37 -56 -4 -17 -29 -24 -27 -64 13 -43 43 -43 46 -6 36 22 -6 39 -1 39 13 0 31
-90 28 -110 -4 -11 -17 -26 -4 -48 43 -28 59 -29 70 -4 80 16 6 29 2 29 -9 0
-10 17 -19 38 -19 21 0 43 -11 49 -25 5 -14 11 -4 11 21 1 26 -6 41 -16 35
-10 -6 -23 2 -29 18 -12 31 -55 30 -96 -2 -15 -12 -40 -27 -57 -33 -24 -9 -23
-11 5 -12 35 -2 51 -42 16 -42 -42 0 -81 64 -71 116 10 50 10 51 -9 9 -22 -50
-81 -62 -81 -16 0 15 14 42 30 58 17 17 30 51 29 77 0 43 -2 44 -28 10 -20
-27 -30 -30 -37 -10 -10 24 -22 -30 -16 -69 1 -8 -7 -15 -18 -15 -39 0 -22
103 19 114 32 8 38 25 33 98 -3 50 4 88 16 88 11 0 10 10 -4 24 -36 36 -29 56
21 57 43 2 43 3 5 19 -39 17 -36 22 15 28 14 1 25 13 25 26 0 13 11 35 25 49
19 19 25 19 25 1 0 -13 -11 -24 -25 -24 -17 -1 -16 -6 4 -19 16 -10 36 -14 45
-8 32 19 102 -15 78 -39 -12 -12 -22 -31 -22 -41 0 -11 18 1 40 27 34 39 41
41 52 13 7 -18 20 -33 30 -33 23 0 14 86 -12 105 -12 9 -9 15 7 15 16 0 22 12
16 30 -7 17 -2 30 10 30 13 0 18 -25 12 -63z m525 -9 c0 -27 -72 -98 -105
-104 -49 -8 -44 10 20 66 54 48 85 62 85 38z"/>
<path d="M3489 1253 c-9 -23 -5 -43 10 -53 15 -9 20 -32 12 -58 -8 -23 -5 -42
6 -42 11 0 26 18 33 40 7 22 21 40 31 40 11 0 19 9 19 19 0 11 -13 15 -30 8
-19 -7 -36 6 -48 36 -16 43 -19 44 -33 10z"/>
<path d="M3760 1099 c0 -12 -9 -16 -20 -9 -29 18 -25 -8 6 -39 20 -20 34 -21
57 -3 26 19 27 27 5 47 -32 31 -48 32 -48 4z"/>
<path d="M4005 980 c-54 -44 -55 -53 -9 -78 43 -23 85 28 66 81 -11 31 -16 31
-57 -3z"/>
<path d="M4788 2222 c8 -107 8 -108 123 -66 132 47 152 124 34 124 -41 0 -95
6 -119 12 -41 11 -44 6 -38 -70z"/>
<path d="M5925 2244 c-35 -19 -64 -41 -65 -49 0 -22 36 -18 50 5 7 11 30 20
51 20 22 0 39 14 39 30 0 17 -2 29 -5 29 -3 -1 -34 -17 -70 -35z"/>
<path d="M4650 2160 c-38 -16 -38 -17 6 -19 32 -1 44 -11 40 -36 -4 -20 7 -35
24 -35 40 0 40 98 0 104 -17 2 -48 -4 -70 -14z"/>
<path d="M2865 2115 c-26 -32 -44 -137 -22 -123 9 6 17 22 17 37 0 46 60 83
80 50 10 -15 24 -22 32 -14 18 18 -29 75 -62 75 -14 0 -34 -11 -45 -25z"/>
<path d="M5893 2086 c-41 -22 -51 -36 -35 -52 16 -16 29 -15 46 2 13 13 40 24
60 24 20 0 36 14 36 30 0 37 -32 35 -107 -4z"/>
<path d="M5410 2024 c22 -4 49 -16 59 -26 10 -10 51 -18 90 -18 53 -1 63 -5
41 -20 -16 -11 -52 -20 -78 -20 -66 0 -48 -12 43 -28 74 -14 75 -13 75 53 l0
68 -135 -1 c-74 0 -117 -4 -95 -8z"/>
<path d="M5895 2006 c-19 -5 -35 -20 -35 -34 0 -21 15 -21 70 -4 110 34 79 68
-35 38z"/>
<path d="M3039 1858 c-18 -34 -16 -49 9 -75 29 -29 32 -25 32 43 0 85 -9 92
-41 32z"/>
<path d="M5869 1751 c-38 -29 -38 -30 1 -30 61 -1 130 21 130 41 0 29 -89 21
-131 -11z"/>
<path d="M5086 1735 c-9 -14 -41 -42 -72 -61 -32 -21 -60 -61 -67 -95 -7 -32
-23 -59 -37 -59 -27 0 -59 -55 -53 -93 2 -12 -20 -28 -48 -35 -66 -17 -54 -56
20 -64 88 -9 110 -91 41 -148 -19 -16 -22 -39 -10 -81 9 -32 11 -62 3 -67 -24
-15 -7 -353 18 -383 18 -22 14 -40 -16 -81 -33 -45 -35 -67 -19 -148 20 -103
-19 -200 -81 -200 -22 0 -24 -7 -8 -26 23 -29 9 -114 -19 -114 -10 0 -18 -18
-18 -40 0 -32 13 -40 70 -40 49 0 70 9 70 30 0 17 9 30 20 30 11 0 20 14 20
30 0 17 10 30 21 30 12 0 16 8 10 19 -39 63 171 87 218 24 23 -30 27 -43 9
-32 -24 14 -24 12 -1 -17 16 -19 21 -34 13 -34 -8 0 -5 -12 7 -27 13 -15 17
-33 9 -40 -7 -7 37 -13 99 -13 84 0 114 8 123 33 11 27 8 29 -18 7 -36 -30
-90 4 -90 58 0 19 -11 45 -24 58 -36 36 -16 40 114 20 196 -31 390 -41 390
-20 0 18 -315 67 -468 72 -46 2 -83 14 -88 30 -7 20 10 24 69 15 324 -47 428
-57 458 -45 65 25 2 48 -161 60 -385 27 -394 30 -454 142 -36 68 -47 107 -34
123 13 15 13 28 -2 37 -12 7 -19 33 -16 57 5 35 -3 42 -44 38 -44 -4 -56 8
-90 100 -48 129 -54 195 -17 181 20 -8 27 13 27 82 0 82 5 92 45 93 40 0 41 3
13 25 -56 42 -68 114 -19 114 22 0 41 9 41 20 0 30 114 24 126 -7 13 -33 184
-56 243 -33 38 15 38 17 5 31 -20 8 -32 26 -26 41 6 15 1 32 -9 39 -30 18 -2
49 46 49 39 0 34 27 -7 33 -10 1 -27 3 -38 5 -35 4 -11 92 29 103 93 25 53 59
-72 60 -122 0 -245 49 -183 73 31 11 10 66 -25 66 -15 0 -34 -11 -43 -25z m66
-195 c2 -39 4 -81 5 -95 2 -14 31 -25 68 -25 36 0 79 -10 95 -21 22 -15 8 -19
-54 -16 -46 3 -91 -1 -98 -9 -65 -64 -234 5 -215 87 31 131 195 196 199 79z
m-116 -944 c34 -34 30 -133 -6 -169 -17 -17 -25 -39 -19 -49 21 -33 -13 -98
-51 -98 -60 0 -55 192 6 253 8 7 14 30 14 50 0 43 22 47 56 13z"/>
<path d="M5456 1702 c24 -25 47 -32 131 -40 10 -1 12 -15 6 -31 -6 -17 -2 -36
10 -43 30 -18 -20 -47 -82 -48 -72 0 -25 -35 59 -43 l70 -7 0 117 0 116 -111
4 c-97 3 -108 -1 -83 -25z"/>
<path d="M5893 1587 c-28 -28 -11 -40 47 -31 33 5 60 17 60 26 0 21 -87 24
-107 5z"/>
<path d="M5563 1443 c-20 -13 -16 -20 17 -29 54 -14 34 -54 -26 -54 -36 -1
-38 -4 -14 -20 68 -44 117 -24 113 45 -3 67 -39 90 -90 58z"/>
<path d="M5890 1240 c-7 -12 13 -20 49 -20 33 0 61 9 61 20 0 11 -22 20 -49
20 -27 0 -54 -9 -61 -20z"/>
<path d="M5495 1217 c-17 -10 -14 -19 10 -28 59 -22 160 -20 169 4 9 26 -143
46 -179 24z"/>
<path d="M5360 1201 c0 -21 -28 -24 -125 -14 -107 10 -120 8 -90 -15 51 -38
43 -52 -30 -53 -36 -1 -83 -10 -105 -20 -29 -13 -19 -15 34 -7 105 17 141 -13
55 -44 l-69 -25 64 -1 c85 -3 103 -38 23 -46 -67 -6 -106 -54 -43 -53 20 1
107 -9 193 -21 164 -22 217 -15 165 25 -40 30 -29 96 20 114 34 13 31 18 -22
40 -55 24 -56 27 -16 34 24 4 62 -2 84 -14 59 -31 202 -27 202 6 0 20 -41 31
-143 38 -108 8 -151 19 -170 46 -18 24 -27 27 -27 10z m0 -241 c22 -14 8 -19
-54 -20 -46 0 -89 9 -96 20 -16 26 110 26 150 0z"/>
<path d="M5880 1140 c0 -11 27 -20 60 -20 33 0 60 9 60 20 0 11 -27 20 -60 20
-33 0 -60 -9 -60 -20z"/>
<path d="M4663 1094 c-64 -69 -59 -158 9 -145 92 16 104 41 90 176 -4 30 -56
14 -99 -31z"/>
<path d="M4422 944 c-29 -54 -64 -275 -50 -312 8 -20 0 -44 -18 -58 -46 -36
-66 -154 -26 -154 37 0 44 -70 10 -91 -23 -15 -62 29 -47 53 5 7 -21 11 -56 8
-100 -9 -109 -13 -55 -28 60 -16 78 -102 31 -141 -44 -37 -111 25 -111 102 0
73 -39 75 -42 2 -2 -30 0 -64 2 -75 24 -93 23 -110 -8 -110 -64 0 -30 -30 38
-34 47 -2 70 5 70 23 0 58 49 70 133 32 45 -20 105 -32 134 -26 29 5 54 2 55
-8 0 -9 4 -33 8 -52 3 -19 -8 -44 -27 -54 -26 -16 -19 -20 33 -20 37 -1 61 7
55 17 -6 10 0 23 14 29 19 8 19 10 -1 11 -31 2 -12 42 19 42 13 0 16 -20 9
-50 -10 -41 -5 -50 27 -50 36 0 39 9 28 90 -10 73 -6 92 22 102 26 10 28 17 9
29 -20 13 -20 32 -2 95 28 91 33 564 6 564 -28 0 -43 -57 -53 -199 -10 -140
-65 -431 -91 -482 -26 -53 -165 -27 -148 28 8 24 22 129 31 233 49 517 49 573
1 484z"/>
<path d="M5500 961 c0 -25 170 -49 203 -29 19 12 13 20 -23 30 -75 21 -180 20
-180 -1z"/>
<path d="M5148 876 c-6 -9 -1 -16 11 -16 11 0 21 -22 21 -49 0 -27 8 -53 17
-59 32 -20 270 -21 277 -1 3 10 60 16 126 12 137 -8 165 26 39 47 -50 9 -104
4 -141 -11 -63 -26 -107 -10 -57 22 16 10 25 19 19 19 -5 1 -76 13 -156 27
-80 14 -151 18 -156 9z"/>
<path d="M5513 884 c-14 -22 50 -43 132 -44 54 0 79 30 30 36 -14 2 -53 9 -88
16 -34 6 -68 3 -74 -8z"/>
<path d="M5900 802 c0 -18 47 -42 82 -42 10 0 18 14 18 30 0 19 -19 30 -50 30
-27 0 -50 -8 -50 -18z"/>
<path d="M5150 641 c-6 -10 -1 -24 11 -31 15 -10 14 -21 -1 -40 -30 -36 -12
-43 147 -59 133 -14 136 -13 124 27 -9 28 -5 42 12 42 60 0 -26 47 -97 53 -42
4 -100 11 -130 16 -30 5 -59 2 -66 -8z"/>
<path d="M5507 570 c4 -61 50 -79 150 -60 66 13 69 16 28 31 -29 12 -40 28
-33 48 10 25 -4 31 -68 31 -73 0 -80 -4 -77 -50z"/>
<path d="M3121 501 c-34 -21 -28 -31 30 -49 24 -7 57 1 80 19 21 18 28 27 15
20 -13 -6 -29 -3 -36 9 -15 25 -51 25 -89 1z"/>
<path d="M5200 460 c0 -10 20 -24 45 -29 25 -5 63 -13 85 -18 22 -5 0 -9 -49
-11 -119 -3 -83 -39 56 -55 71 -9 103 -5 103 10 0 13 -13 23 -30 23 -55 0 -31
40 25 42 l55 1 -60 28 c-69 32 -230 38 -230 9z"/>
<path d="M5505 435 c11 -34 63 -42 172 -24 l93 16 -80 15 c-124 24 -195 22
-185 -7z"/>
<path d="M5514 367 c-7 -7 -8 -20 -2 -30 15 -24 248 -21 248 3 0 11 -20 19
-45 18 -25 0 -77 4 -117 10 -39 6 -77 6 -84 -1z"/>
<path d="M3447 331 c75 -40 328 -54 341 -18 16 39 -17 49 -112 33 -47 -8 -90
-13 -96 -12 -109 27 -185 25 -133 -3z"/>
<path d="M5925 235 c13 -38 75 -43 75 -6 0 18 -17 31 -42 31 -24 0 -38 -10
-33 -25z"/>
<path d="M2848 217 c-9 -14 -5 -18 9 -9 12 8 43 -6 68 -30 l45 -43 -78 12
c-70 10 -74 9 -40 -17 32 -23 32 -27 5 -23 -18 3 -49 18 -68 34 -21 17 -38 21
-42 9 -4 -11 -50 -19 -102 -18 -52 1 -125 -7 -163 -17 -51 -14 -72 -12 -85 8
-14 22 -20 22 -34 1 -11 -18 -35 -22 -73 -12 -40 10 -52 7 -42 -9 8 -13 5 -23
-6 -23 -11 0 -25 9 -32 20 -7 12 -22 15 -32 9 -11 -7 -33 -1 -49 12 -25 20
-28 19 -18 -7 10 -25 2 -30 -38 -23 -28 5 -55 1 -61 -8 -12 -19 -158 -14 -191
7 -12 7 -21 5 -21 -4 0 -10 -37 -14 -83 -9 -63 6 -79 2 -67 -18 13 -19 1 -22
-51 -12 -37 8 -72 22 -78 31 -15 25 -121 17 -121 -8 0 -11 -64 -21 -145 -22
-80 -2 -129 1 -110 6 19 5 35 16 35 25 0 28 -88 41 -106 15 -13 -19 -19 -19
-27 1 -7 17 -21 19 -45 6 -19 -10 -46 -11 -60 -2 -14 9 -54 10 -89 2 -83 -19
-234 -11 -250 13 -7 11 -76 16 -153 12 -77 -4 -166 -7 -198 -7 -32 0 -72 -9
-90 -19 -22 -14 -11 -16 38 -7 69 11 69 11 25 -22 -37 -27 -52 -29 -90 -8 -61
34 -115 41 -115 16 0 -12 9 -16 20 -9 11 7 20 3 20 -9 0 -11 -9 -21 -20 -21
-11 0 -20 -9 -20 -20 0 -25 3714 -26 3825 -1 43 10 80 9 86 -1 6 -10 116 -18
244 -18 181 0 228 5 209 24 -13 13 -24 40 -24 60 0 35 -3 35 -49 5 -27 -18
-60 -26 -73 -18 -15 10 -19 7 -10 -8 20 -33 -67 -30 -172 6 -106 36 -234 46
-252 20 -23 -31 -67 -39 -197 -37 -171 4 -237 22 -207 57 22 28 -32 77 -74 68
-9 -2 -29 2 -46 8 -115 45 -410 67 -432 32z"/>
<path d="M5320 142 c1 -34 37 -62 67 -51 48 19 41 43 -17 54 -27 5 -50 4 -50
-3z"/>
<path d="M5500 69 c0 -23 29 -29 135 -27 116 1 126 4 75 20 -113 36 -210 39
-210 7z"/>
</g>
</svg>
